<?xml version="1.0" encoding="UTF-8" standalone="no"?>
<!DOCTYPE svg PUBLIC "-//W3C//DTD SVG 1.1//EN"
 "http://www.w3.org/Graphics/SVG/1.1/DTD/svg11.dtd">
<!-- Generated by graphviz version 2.38.0 (20140413.2041)
 -->
<!-- Title: classes_Algoritms Pages: 1 -->
<svg width="1036pt" height="746pt"
 viewBox="0.00 0.00 1036.00 746.00" xmlns="http://www.w3.org/2000/svg" xmlns:xlink="http://www.w3.org/1999/xlink">
<g id="graph0" class="graph" transform="scale(1 1) rotate(0) translate(4 742)">
<title>classes_Algoritms</title>
<polygon fill="white" stroke="none" points="-4,4 -4,-742 1032,-742 1032,4 -4,4"/>
<!-- 0 -->
<g id="node1" class="node"><title>0</title>
<polygon fill="none" stroke="black" points="490,-592.5 490,-737.5 608,-737.5 608,-592.5 490,-592.5"/>
<text text-anchor="middle" x="549" y="-722.3" font-family="Times New Roman,serif" font-size="14.00">BaseModel</text>
<polyline fill="none" stroke="black" points="490,-714.5 608,-714.5 "/>
<polyline fill="none" stroke="black" points="490,-690.5 608,-690.5 "/>
<text text-anchor="start" x="498" y="-675.3" font-family="Times New Roman,serif" font-size="14.00">getId()</text>
<text text-anchor="start" x="498" y="-660.3" font-family="Times New Roman,serif" font-size="14.00">getName()</text>
<text text-anchor="start" x="498" y="-645.3" font-family="Times New Roman,serif" font-size="14.00">getParameterDef()</text>
<text text-anchor="start" x="498" y="-630.3" font-family="Times New Roman,serif" font-size="14.00">predict()</text>
<text text-anchor="start" x="498" y="-615.3" font-family="Times New Roman,serif" font-size="14.00">setParameter()</text>
<text text-anchor="start" x="498" y="-600.3" font-family="Times New Roman,serif" font-size="14.00">train()</text>
</g>
<!-- 3 -->
<g id="node4" class="node"><title>3</title>
<polygon fill="none" stroke="black" points="166,-424.5 166,-554.5 284,-554.5 284,-424.5 166,-424.5"/>
<text text-anchor="middle" x="225" y="-539.3" font-family="Times New Roman,serif" font-size="14.00">Classifier</text>
<polyline fill="none" stroke="black" points="166,-531.5 284,-531.5 "/>
<polyline fill="none" stroke="black" points="166,-507.5 284,-507.5 "/>
<text text-anchor="start" x="174" y="-492.3" font-family="Times New Roman,serif" font-size="14.00">getParameterDef()</text>
<text text-anchor="start" x="174" y="-477.3" font-family="Times New Roman,serif" font-size="14.00">predict()</text>
<text text-anchor="start" x="174" y="-462.3" font-family="Times New Roman,serif" font-size="14.00">predictViz()</text>
<text text-anchor="start" x="174" y="-447.3" font-family="Times New Roman,serif" font-size="14.00">setParameter()</text>
<text text-anchor="start" x="174" y="-432.3" font-family="Times New Roman,serif" font-size="14.00">train()</text>
</g>
<!-- 3&#45;&gt;0 -->
<g id="edge2" class="edge"><title>3&#45;&gt;0</title>
<path fill="none" stroke="black" d="M284.189,-522.352C303.564,-532.768 325.195,-544.386 345,-555 390.149,-579.196 440.956,-606.342 480.571,-627.492"/>
<polygon fill="none" stroke="black" points="479.147,-630.699 489.617,-632.321 482.444,-624.524 479.147,-630.699"/>
</g>
<!-- 4 -->
<g id="node5" class="node"><title>4</title>
<polygon fill="none" stroke="black" points="354,-424.5 354,-554.5 472,-554.5 472,-424.5 354,-424.5"/>
<text text-anchor="middle" x="413" y="-539.3" font-family="Times New Roman,serif" font-size="14.00">Cluster</text>
<polyline fill="none" stroke="black" points="354,-531.5 472,-531.5 "/>
<polyline fill="none" stroke="black" points="354,-507.5 472,-507.5 "/>
<text text-anchor="start" x="362" y="-492.3" font-family="Times New Roman,serif" font-size="14.00">getParameterDef()</text>
<text text-anchor="start" x="362" y="-477.3" font-family="Times New Roman,serif" font-size="14.00">predict()</text>
<text text-anchor="start" x="362" y="-462.3" font-family="Times New Roman,serif" font-size="14.00">predictViz()</text>
<text text-anchor="start" x="362" y="-447.3" font-family="Times New Roman,serif" font-size="14.00">setParameter()</text>
<text text-anchor="start" x="362" y="-432.3" font-family="Times New Roman,serif" font-size="14.00">train()</text>
</g>
<!-- 4&#45;&gt;0 -->
<g id="edge3" class="edge"><title>4&#45;&gt;0</title>
<path fill="none" stroke="black" d="M463.255,-554.612C470.838,-564.285 478.737,-574.363 486.538,-584.315"/>
<polygon fill="none" stroke="black" points="483.842,-586.549 492.766,-592.26 489.351,-582.23 483.842,-586.549"/>
</g>
<!-- 5 -->
<g id="node6" class="node"><title>5</title>
<polygon fill="none" stroke="black" points="362,-301.5 362,-386.5 480,-386.5 480,-301.5 362,-301.5"/>
<text text-anchor="middle" x="421" y="-371.3" font-family="Times New Roman,serif" font-size="14.00">KMeansCluster</text>
<polyline fill="none" stroke="black" points="362,-363.5 480,-363.5 "/>
<polyline fill="none" stroke="black" points="362,-339.5 480,-339.5 "/>
<text text-anchor="start" x="370" y="-324.3" font-family="Times New Roman,serif" font-size="14.00">getParameterDef()</text>
<text text-anchor="start" x="370" y="-309.3" font-family="Times New Roman,serif" font-size="14.00">setParameter()</text>
</g>
<!-- 5&#45;&gt;4 -->
<g id="edge4" class="edge"><title>5&#45;&gt;4</title>
<path fill="none" stroke="black" d="M418.686,-386.506C418.201,-395.199 417.676,-404.617 417.148,-414.096"/>
<polygon fill="none" stroke="black" points="413.637,-414.196 416.575,-424.375 420.626,-414.586 413.637,-414.196"/>
</g>
<!-- 6 -->
<g id="node7" class="node"><title>6</title>
<polygon fill="none" stroke="black" points="0,-309 0,-379 98,-379 98,-309 0,-309"/>
<text text-anchor="middle" x="49" y="-363.8" font-family="Times New Roman,serif" font-size="14.00">KNNClassifier</text>
<polyline fill="none" stroke="black" points="0,-356 98,-356 "/>
<polyline fill="none" stroke="black" points="0,-332 98,-332 "/>
<text text-anchor="middle" x="49" y="-316.8" font-family="Times New Roman,serif" font-size="14.00"> </text>
</g>
<!-- 6&#45;&gt;3 -->
<g id="edge5" class="edge"><title>6&#45;&gt;3</title>
<path fill="none" stroke="black" d="M90.7095,-379.007C110.805,-395.392 135.403,-415.448 158.031,-433.897"/>
<polygon fill="none" stroke="black" points="155.979,-436.74 165.941,-440.347 160.403,-431.315 155.979,-436.74"/>
</g>
<!-- 7 -->
<g id="node8" class="node"><title>7</title>
<polygon fill="none" stroke="black" points="772.5,-309 772.5,-379 885.5,-379 885.5,-309 772.5,-309"/>
<text text-anchor="middle" x="829" y="-363.8" font-family="Times New Roman,serif" font-size="14.00">LinearRegression</text>
<polyline fill="none" stroke="black" points="772.5,-356 885.5,-356 "/>
<polyline fill="none" stroke="black" points="772.5,-332 885.5,-332 "/>
<text text-anchor="middle" x="829" y="-316.8" font-family="Times New Roman,serif" font-size="14.00"> </text>
</g>
<!-- 14 -->
<g id="node15" class="node"><title>14</title>
<polygon fill="none" stroke="black" points="778,-424.5 778,-554.5 896,-554.5 896,-424.5 778,-424.5"/>
<text text-anchor="middle" x="837" y="-539.3" font-family="Times New Roman,serif" font-size="14.00">Regression</text>
<polyline fill="none" stroke="black" points="778,-531.5 896,-531.5 "/>
<polyline fill="none" stroke="black" points="778,-507.5 896,-507.5 "/>
<text text-anchor="start" x="786" y="-492.3" font-family="Times New Roman,serif" font-size="14.00">getParameterDef()</text>
<text text-anchor="start" x="786" y="-477.3" font-family="Times New Roman,serif" font-size="14.00">predict()</text>
<text text-anchor="start" x="786" y="-462.3" font-family="Times New Roman,serif" font-size="14.00">predictViz()</text>
<text text-anchor="start" x="786" y="-447.3" font-family="Times New Roman,serif" font-size="14.00">setParameter()</text>
<text text-anchor="start" x="786" y="-432.3" font-family="Times New Roman,serif" font-size="14.00">train()</text>
</g>
<!-- 7&#45;&gt;14 -->
<g id="edge6" class="edge"><title>7&#45;&gt;14</title>
<path fill="none" stroke="black" d="M830.896,-379.007C831.488,-389.627 832.166,-401.788 832.85,-414.054"/>
<polygon fill="none" stroke="black" points="829.372,-414.561 833.424,-424.351 836.362,-414.171 829.372,-414.561"/>
</g>
<!-- 8 -->
<g id="node9" class="node"><title>8</title>
<polygon fill="none" stroke="black" points="904,-309 904,-379 1028,-379 1028,-309 904,-309"/>
<text text-anchor="middle" x="966" y="-363.8" font-family="Times New Roman,serif" font-size="14.00">LogisticRegression</text>
<polyline fill="none" stroke="black" points="904,-356 1028,-356 "/>
<polyline fill="none" stroke="black" points="904,-332 1028,-332 "/>
<text text-anchor="start" x="912" y="-316.8" font-family="Times New Roman,serif" font-size="14.00">predict_proba()</text>
</g>
<!-- 8&#45;&gt;14 -->
<g id="edge7" class="edge"><title>8&#45;&gt;14</title>
<path fill="none" stroke="black" d="M935.429,-379.007C925.215,-390.37 913.413,-403.498 901.607,-416.631"/>
<polygon fill="none" stroke="black" points="898.75,-414.574 894.667,-424.351 903.956,-419.254 898.75,-414.574"/>
</g>
<!-- 9 -->
<g id="node10" class="node"><title>9</title>
<polygon fill="none" stroke="black" points="660.5,-309 660.5,-379 743.5,-379 743.5,-309 660.5,-309"/>
<text text-anchor="middle" x="702" y="-363.8" font-family="Times New Roman,serif" font-size="14.00">Lstm</text>
<polyline fill="none" stroke="black" points="660.5,-356 743.5,-356 "/>
<polyline fill="none" stroke="black" points="660.5,-332 743.5,-332 "/>
<text text-anchor="start" x="668.5" y="-316.8" font-family="Times New Roman,serif" font-size="14.00">predictViz()</text>
</g>
<!-- 13 -->
<g id="node14" class="node"><title>13</title>
<polygon fill="none" stroke="black" points="626,-424.5 626,-554.5 760,-554.5 760,-424.5 626,-424.5"/>
<text text-anchor="middle" x="693" y="-539.3" font-family="Times New Roman,serif" font-size="14.00">NeuralNetwork_New</text>
<polyline fill="none" stroke="black" points="626,-531.5 760,-531.5 "/>
<polyline fill="none" stroke="black" points="626,-507.5 760,-507.5 "/>
<text text-anchor="start" x="634" y="-492.3" font-family="Times New Roman,serif" font-size="14.00">getParameterDef()</text>
<text text-anchor="start" x="634" y="-477.3" font-family="Times New Roman,serif" font-size="14.00">predict()</text>
<text text-anchor="start" x="634" y="-462.3" font-family="Times New Roman,serif" font-size="14.00">predictViz()</text>
<text text-anchor="start" x="634" y="-447.3" font-family="Times New Roman,serif" font-size="14.00">setParameter()</text>
<text text-anchor="start" x="634" y="-432.3" font-family="Times New Roman,serif" font-size="14.00">train()</text>
</g>
<!-- 9&#45;&gt;13 -->
<g id="edge8" class="edge"><title>9&#45;&gt;13</title>
<path fill="none" stroke="black" d="M699.867,-379.007C699.201,-389.627 698.438,-401.788 697.669,-414.054"/>
<polygon fill="none" stroke="black" points="694.156,-414.151 697.023,-424.351 701.142,-414.589 694.156,-414.151"/>
</g>
<!-- 10 -->
<g id="node11" class="node"><title>10</title>
<polygon fill="none" stroke="black" points="619.5,-0.5 619.5,-249.5 800.5,-249.5 800.5,-0.5 619.5,-0.5"/>
<text text-anchor="middle" x="710" y="-234.3" font-family="Times New Roman,serif" font-size="14.00">LstmNeuralNetwork</text>
<polyline fill="none" stroke="black" points="619.5,-226.5 800.5,-226.5 "/>
<text text-anchor="start" x="627.5" y="-211.3" font-family="Times New Roman,serif" font-size="14.00">metricas : NoneType</text>
<text text-anchor="start" x="627.5" y="-196.3" font-family="Times New Roman,serif" font-size="14.00">x_test : NoneType</text>
<text text-anchor="start" x="627.5" y="-181.3" font-family="Times New Roman,serif" font-size="14.00">x_train : NoneType</text>
<text text-anchor="start" x="627.5" y="-166.3" font-family="Times New Roman,serif" font-size="14.00">y_test : NoneType</text>
<text text-anchor="start" x="627.5" y="-151.3" font-family="Times New Roman,serif" font-size="14.00">y_train : NoneType</text>
<polyline fill="none" stroke="black" points="619.5,-143.5 800.5,-143.5 "/>
<text text-anchor="start" x="627.5" y="-128.3" font-family="Times New Roman,serif" font-size="14.00">build_model()</text>
<text text-anchor="start" x="627.5" y="-113.3" font-family="Times New Roman,serif" font-size="14.00">fit()</text>
<text text-anchor="start" x="627.5" y="-98.3" font-family="Times New Roman,serif" font-size="14.00">normalise_windows()</text>
<text text-anchor="start" x="627.5" y="-83.3" font-family="Times New Roman,serif" font-size="14.00">plot_results_multiple()</text>
<text text-anchor="start" x="627.5" y="-68.3" font-family="Times New Roman,serif" font-size="14.00">predict()</text>
<text text-anchor="start" x="627.5" y="-53.3" font-family="Times New Roman,serif" font-size="14.00">predict_point_by_point()</text>
<text text-anchor="start" x="627.5" y="-38.3" font-family="Times New Roman,serif" font-size="14.00">predict_sequence_full()</text>
<text text-anchor="start" x="627.5" y="-23.3" font-family="Times New Roman,serif" font-size="14.00">predict_sequences_multiple()</text>
<text text-anchor="start" x="627.5" y="-8.3" font-family="Times New Roman,serif" font-size="14.00">series_to_supervised()</text>
</g>
<!-- 10&#45;&gt;9 -->
<g id="edge15" class="edge"><title>10&#45;&gt;9</title>
<path fill="none" stroke="black" d="M705.439,-249.713C704.827,-266.328 704.232,-282.457 703.714,-296.501"/>
<polygon fill="black" stroke="black" points="703.704,-296.774 707.48,-302.917 703.262,-308.765 699.486,-302.622 703.704,-296.774"/>
<text text-anchor="middle" x="726.5" y="-271.8" font-family="Times New Roman,serif" font-size="14.00" fill="green">_model</text>
</g>
<!-- 11 -->
<g id="node12" class="node"><title>11</title>
<polygon fill="none" stroke="black" points="116,-309 116,-379 228,-379 228,-309 116,-309"/>
<text text-anchor="middle" x="172" y="-363.8" font-family="Times New Roman,serif" font-size="14.00">NBayesClassifier</text>
<polyline fill="none" stroke="black" points="116,-356 228,-356 "/>
<polyline fill="none" stroke="black" points="116,-332 228,-332 "/>
<text text-anchor="middle" x="172" y="-316.8" font-family="Times New Roman,serif" font-size="14.00"> </text>
</g>
<!-- 11&#45;&gt;3 -->
<g id="edge9" class="edge"><title>11&#45;&gt;3</title>
<path fill="none" stroke="black" d="M184.56,-379.007C188.561,-389.839 193.154,-402.275 197.776,-414.79"/>
<polygon fill="none" stroke="black" points="194.559,-416.183 201.307,-424.351 201.126,-413.757 194.559,-416.183"/>
</g>
<!-- 13&#45;&gt;0 -->
<g id="edge11" class="edge"><title>13&#45;&gt;0</title>
<path fill="none" stroke="black" d="M639.789,-554.612C631.553,-564.535 622.965,-574.883 614.497,-585.085"/>
<polygon fill="none" stroke="black" points="611.747,-582.919 608.053,-592.849 617.133,-587.389 611.747,-582.919"/>
</g>
<!-- 14&#45;&gt;0 -->
<g id="edge12" class="edge"><title>14&#45;&gt;0</title>
<path fill="none" stroke="black" d="M777.777,-548.516C774.868,-550.777 771.935,-552.951 769,-555 721.525,-588.146 662.49,-616.806 617.53,-636.408"/>
<polygon fill="none" stroke="black" points="615.953,-633.276 608.159,-640.452 618.727,-639.703 615.953,-633.276"/>
</g>
<!-- 15 -->
<g id="node16" class="node"><title>15</title>
<polygon fill="none" stroke="black" points="246,-309 246,-379 344,-379 344,-309 246,-309"/>
<text text-anchor="middle" x="295" y="-363.8" font-family="Times New Roman,serif" font-size="14.00">SVMClassifier</text>
<polyline fill="none" stroke="black" points="246,-356 344,-356 "/>
<polyline fill="none" stroke="black" points="246,-332 344,-332 "/>
<text text-anchor="middle" x="295" y="-316.8" font-family="Times New Roman,serif" font-size="14.00"> </text>
</g>
<!-- 15&#45;&gt;3 -->
<g id="edge13" class="edge"><title>15&#45;&gt;3</title>
<path fill="none" stroke="black" d="M278.411,-379.007C273.076,-389.945 266.942,-402.519 260.777,-415.158"/>
<polygon fill="none" stroke="black" points="257.531,-413.828 256.292,-424.351 263.822,-416.897 257.531,-413.828"/>
</g>
</g>
</svg>
